<?xml version="1.0" encoding="UTF-8" standalone="no"?>
<!-- Created with Inkscape (http://www.inkscape.org/) -->

<svg
   width="78.000969mm"
   height="73.004608mm"
   viewBox="0 0 78.000969 73.004608"
   version="1.1"
   id="svg1"
   inkscape:version="1.3 (0e150ed6c4, 2023-07-21)"
   sodipodi:docname="drawing.svg"
   xml:space="preserve"
   xmlns:inkscape="http://www.inkscape.org/namespaces/inkscape"
   xmlns:sodipodi="http://sodipodi.sourceforge.net/DTD/sodipodi-0.dtd"
   xmlns="http://www.w3.org/2000/svg"
   xmlns:svg="http://www.w3.org/2000/svg"><sodipodi:namedview
     id="namedview1"
     pagecolor="#ffffff"
     bordercolor="#000000"
     borderopacity="0.25"
     inkscape:showpageshadow="2"
     inkscape:pageopacity="0.0"
     inkscape:pagecheckerboard="0"
     inkscape:deskcolor="#d1d1d1"
     inkscape:document-units="mm"
     inkscape:zoom="2.244053"
     inkscape:cx="561.26125"
     inkscape:cy="245.98349"
     inkscape:window-width="1600"
     inkscape:window-height="930"
     inkscape:window-x="-6"
     inkscape:window-y="-6"
     inkscape:window-maximized="1"
     inkscape:current-layer="layer1" /><defs
     id="defs1" /><g
     inkscape:label="Layer 1"
     inkscape:groupmode="layer"
     id="layer1"
     transform="translate(48.232492,205.39663)"><path
       style="fill:#000000"
       d="m -48.232491,-169.42349 v -35.97314 H -9.2320009 29.768479 v 35.97314 37.03146 H -9.2320009 -48.232491 Z m 56.5931001,5.66916 c 0,-0.0296 0.57616,-2.03576 1.28037,-4.45824 0.7041999,-2.42249 1.2558599,-4.46836 1.2259199,-4.54639 -0.0539,-0.14033 -0.67436,-0.33344 -0.7686,-0.23921 -0.0268,0.0268 -0.4724199,1.49788 -0.9901799,3.26896 -1.85483,6.34482 -1.7018,5.74825 -1.51248,5.89614 0.16306,0.12736 0.76497,0.18932 0.76497,0.0787 z m -32.0270301,-0.39138 c 0.07,-0.07 0.12718,-0.28456 0.12718,-0.47691 v -0.34973 h -5.193 -5.193 v 0.34973 c 0,0.19235 0.0572,0.40696 0.12717,0.47691 0.18312,0.18312 9.94853,0.18312 10.13165,0 z m 17.2750701,-0.25905 c 0.18856,-0.0505 0.23683,-0.12862 0.21196,-0.34299 l -0.0322,-0.27759 -4.4441601,-0.0277 c -3.485,-0.0217 -4.46247,0.001 -4.52901,0.10598 -0.12097,0.19056 -0.10937,0.2562 0.0785,0.44403 0.14578,0.14578 0.68404,0.16635 4.31867,0.16509 2.2836701,-8e-4 4.2620001,-0.0309 4.3962801,-0.0668 z m 13.37383,-0.72614 c 0.13668,-0.1455 0.21732,-0.30049 0.1792,-0.34444 -0.0381,-0.0439 -0.70201,-0.71256 -1.4753,-1.48582 l -1.40599,-1.40591 1.45722,-1.4312 c 0.80147,-0.78715 1.45722,-1.46291 1.45722,-1.50169 0,-0.1095 -0.44913,-0.56107 -0.55805,-0.56107 -0.1748,0 -3.57509,3.31528 -3.57748,3.48804 -0.002,0.17902 3.36764,3.4933 3.56067,3.50167 0.0627,0.003 0.22583,-0.11409 0.36251,-0.25958 z m 6.7610399,-1.48742 1.77071,-1.75195 -1.79322,-1.74538 c -0.98626,-0.95995 -1.85316,-1.74538 -1.92643,-1.74538 -0.0733,0 -0.23484,0.12919 -0.35904,0.28708 l -0.22581,0.28708 1.41039,1.40277 c 0.77572,0.77153 1.4104,1.45858 1.4104,1.52679 0,0.0682 -0.63515,0.75178 -1.41145,1.51906 l -1.41144,1.39505 0.22686,0.28842 c 0.12478,0.15862 0.29694,0.28841 0.38259,0.28841 0.0857,0 0.95255,-0.78838 1.92644,-1.75195 z m -22.3484699,1.01262 c 0.44604,-0.12792 0.81442,-0.46283 1.08109,-0.98284 0.15945,-0.31094 0.26675,-0.39793 0.49309,-0.39975 0.39922,-0.003 1.07643,-0.33056 1.44374,-0.69787 0.46796,-0.46796 0.69521,-1.06116 0.69786,-1.82164 0.002,-0.56882 -0.036,-0.70554 -0.2578,-0.92732 -0.2232,-0.2232 -0.35862,-0.26013 -0.95382,-0.26013 -0.62303,0 -0.69368,-0.0216 -0.69368,-0.21196 0,-0.20809 -0.0707,-0.21196 -3.8682601,-0.21196 h -3.86825 l 8e-4,0.98031 c 0.002,2.20634 0.64282,4.10164 1.51561,4.48122 0.40483,0.17606 3.8359301,0.21647 4.4096201,0.0519 z m 1.58279,-2.17318 c -0.0281,-0.0281 0.01,-0.39769 0.0841,-0.82134 0.0743,-0.42366 0.13706,-0.90143 0.13937,-1.06173 0.004,-0.2821 0.0229,-0.29144 0.5871,-0.29144 h 0.58288 v 0.51422 c 0,0.5983 -0.28427,1.09618 -0.83953,1.47037 -0.36521,0.24611 -0.4639,0.27995 -0.55393,0.18992 z m -17.4179101,-0.60853 c 0,-2.69574 -0.003,-2.72888 -0.2414,-2.96742 l -0.2414,-0.24125 h -3.82168 -3.82169 l -0.20259,0.2502 c -0.18782,0.23195 -0.2026,0.45039 -0.2026,2.99512 v 2.74493 l 4.26568,-0.0277 4.26568,-0.0277 z m -7.57754,-0.24748 v -2.07284 l 3.31186,0.0327 c 1.82152,0.018 3.29994,0.0685 3.28537,0.11222 -0.0146,0.0437 -0.0265,0.96177 -0.0265,2.04011 v 1.96062 h -3.28536 -3.28537 z m 13.1199,1.46839 0.0314,-0.65744 0.65745,-0.0314 0.65744,-0.0314 0.0338,-0.41313 c 0.0415,-0.50695 -0.0709,-0.58992 -0.80218,-0.59205 l -0.55639,-0.002 v -0.62873 c 0,-0.70324 -0.11543,-0.81394 -0.68887,-0.66065 -0.30052,0.0803 -0.31968,0.11797 -0.34972,0.68718 l -0.0318,0.6022 h -0.56462 c -0.65859,0 -0.83224,0.14531 -0.78327,0.65545 l 0.0337,0.35136 0.66237,0.0316 0.66237,0.0315 v 0.61316 c 0,0.33724 0.034,0.64719 0.0756,0.6888 0.0416,0.0416 0.26813,0.0615 0.5034,0.0442 l 0.42777,-0.0315 z m 19.77484013,0.0434 c 0.13174997,-0.0963 0.17719997,-0.24615 0.15272997,-0.5034 l -0.0348,-0.36625 h -1.85465 -1.85464 l -0.0337,0.35136 c -0.0595,0.61957 0.0406,0.65545 1.8281,0.65545 1.14956,0 1.66304,-0.0392 1.79701,-0.13716 z m 0.1179,-1.98244 v -0.4769 h -1.85465 -1.85464003 l -0.034,0.35452 c -0.0644,0.67222 -0.10097,0.66021 1.91274003,0.6283 l 1.83051,-0.029 z M -10.499071,-171.6017 c 0.19133,-0.23054 0.17018,-0.74938 -0.04,-0.98164 -0.21917,-0.24218 -0.22565,-0.48278 -0.0177,-0.6554 0.21119,-0.17527 0.20174,-0.68974 -0.0195,-1.06436 -0.14443,-0.2445 -0.15531,-0.35315 -0.057,-0.56896 0.14532,-0.31893 0.003,-0.45037 -0.23285,-0.21473 -0.21947,0.21948 -0.21261,0.62622 0.0171,1.01515 0.17554,0.29718 0.17554,0.32845 0,0.63432 -0.22976,0.40033 -0.2344,0.71628 -0.0151,1.02935 0.11784,0.16824 0.14869,0.35318 0.10117,0.60647 -0.0727,0.3874 0.0384,0.47149 0.26387,0.1998 z m 0.9953301,-0.18494 c 0.0813,-0.23117 0.059,-0.37751 -0.10379,-0.68049 -0.22547,-0.4197 -0.22044,-0.62327 0.0221,-0.89471 0.19834,-0.22197 0.14562,-0.72057 -0.0919,-0.86927 -0.24388,-0.15267 -0.3405201,-0.0297 -0.19313,0.2457 0.098,0.18307 0.0797,0.29139 -0.0974,0.57798 -0.2761001,0.44674 -0.2740701,0.64008 0.0109,1.04034 0.18584,0.26098 0.20579,0.35851 0.10598,0.51832 -0.1753901,0.28085 -0.1519901,0.43282 0.0603,0.39193 0.1008,-0.0194 0.22988,-0.16782 0.28684,-0.3298 z m -2.0022401,-0.89571 c -0.0467,-0.2767 -0.0183,-0.46181 0.0933,-0.60938 0.20978,-0.27735 0.21021,-0.73309 8.4e-4,-0.90685 -0.10884,-0.0903 -0.15457,-0.2686 -0.13247,-0.51638 0.043,-0.48227 -0.13124,-0.57644 -0.32369,-0.17492 -0.13498,0.28163 -0.12604,0.35029 0.0994,0.76294 0.22752,0.41649 0.23404,0.46902 0.08,0.64433 -0.28022,0.31884 -0.33242,0.65371 -0.14619,0.93793 0.25578,0.39036 0.40724,0.32696 0.32887,-0.13767 z"
       id="path1"
       sodipodi:nodetypes="ccccccccccscsssccsscccscscscscssccssscsssccsscssscssscssscscssssssccsccsccscsssssccccsscccsccscsccccccccsccssscsscccsscccccccccscccccccsccssssscsssssscsssssssscccssssscscc" /></g></svg>
